<svg xmlns="http://www.w3.org/2000/svg" id="ic_change" width="100" height="100" viewBox="0 0 100 100">
    <defs>
        <style>
            .cls-2,.cls-6{fill:#fff}.cls-2{stroke:#333;stroke-width:2px}.cls-3{fill:#e9e9e9}.cls-5{fill:#04a9a9}.cls-7{stroke:none}.cls-8{fill:none}
        </style>
    </defs>
    <g id="ic" transform="translate(-911 -373)">
        <g id="paper">
            <g id="사각형_332" class="cls-2" transform="translate(922 379)">
                <rect width="64" height="80" class="cls-7" rx="4"/>
                <rect width="62" height="78" x="1" y="1" class="cls-8" rx="3"/>
            </g>
            <g id="사각형_333" class="cls-2">
                <path d="M0 0h40v4a4 4 0 0 1-4 4H4a4 4 0 0 1-4-4V0z" class="cls-7" transform="translate(934 379)"/>
                <path d="M2 1h36a1 1 0 0 1 1 1v2a3 3 0 0 1-3 3H4a3 3 0 0 1-3-3V2a1 1 0 0 1 1-1z" class="cls-8" transform="translate(934 379)"/>
            </g>
            <rect id="사각형_349" width="48" height="5" class="cls-3" rx="1" transform="translate(930 424)"/>
            <rect id="사각형_352" width="48" height="5" class="cls-3" rx="1" transform="translate(930 434)"/>
            <rect id="사각형_353" width="48" height="5" class="cls-3" rx="1" transform="translate(930 444)"/>
            <path id="사각형_395" fill="#333" d="M0 0H42V2H0z" transform="translate(933 379)"/>
        </g>
        <g id="check" transform="translate(971.5 437)">
            <rect id="사각형_197" width="30" height="30" class="cls-5" rx="15" transform="translate(-.499)"/>
            <g id="check-2" transform="translate(7.501 10)">
                <path id="사각형_45" d="M0 0H2V12H0z" class="cls-6" transform="rotate(45 6.364 15.364)"/>
                <path id="사각형_46" d="M0 0H2V8H0z" class="cls-6" transform="rotate(135 1.778 5.707)"/>
            </g>
        </g>
        <g id="my" transform="translate(16 187)">
            <rect id="사각형_296" width="10" height="10" class="cls-5" rx="5" transform="translate(933 208)"/>
            <path id="패스_55" d="M10 0c5.523 0 10 3.166 10 7.071s-20 3.905-20 0S4.477 0 10 0z" class="cls-5" transform="translate(928 220)"/>
        </g>
    </g>
</svg>
