<svg xmlns="http://www.w3.org/2000/svg" id="ic_gsmem" width="100" height="100" viewBox="0 0 100 100">
    <defs>
        <linearGradient id="linear-gradient" x1="1.137" x2="-.262" y1=".212" y2=".796" gradientUnits="objectBoundingBox">
            <stop offset="0" stop-color="#f9be00"/>
            <stop offset="1" stop-color="#c7c300"/>
        </linearGradient>
        <linearGradient id="linear-gradient-2" x1="-.318" x2=".958" y1=".226" y2=".735" gradientUnits="objectBoundingBox">
            <stop offset="0" stop-color="#c7c300"/>
            <stop offset="1" stop-color="#7fbe26"/>
        </linearGradient>
        <linearGradient id="linear-gradient-3" x1=".164" x2="1.011" y1=".163" y2=".831" gradientUnits="objectBoundingBox">
            <stop offset="0" stop-color="#7dccf3"/>
            <stop offset="1" stop-color="#00b1c3"/>
        </linearGradient>
        <linearGradient id="linear-gradient-4" x1="1.197" x2=".255" y1=".222" y2=".722" gradientUnits="objectBoundingBox">
            <stop offset="0" stop-color="#00b1c3"/>
            <stop offset="1" stop-color="#009d95"/>
        </linearGradient>
        <linearGradient id="linear-gradient-5" x1=".07" x2=".937" y1=".5" y2=".5" gradientUnits="objectBoundingBox">
            <stop offset="0" stop-color="#0068b6"/>
            <stop offset="1" stop-color="#7dccf3"/>
        </linearGradient>
        <linearGradient id="linear-gradient-6" x2="1" y1=".5" y2=".5" gradientUnits="objectBoundingBox">
            <stop offset="0" stop-color="#f9be00"/>
            <stop offset=".637" stop-color="#ee7f00"/>
            <stop offset="1" stop-color="#ea6000"/>
        </linearGradient>
        <linearGradient id="linear-gradient-7" x1=".058" x2=".926" y1=".5" y2=".5" gradientUnits="objectBoundingBox">
            <stop offset="0" stop-color="#7fbe26"/>
            <stop offset="1" stop-color="#009d95"/>
        </linearGradient>
        <style>
            .cls-14,.cls-2{fill:#fff}.cls-2{stroke:#333;stroke-width:2px}.cls-4{fill:#0068b7}.cls-15{stroke:none}.cls-16{fill:none}
        </style>
    </defs>
    <g id="ic" transform="translate(-758 -365)">
        <g id="모니터" transform="translate(1)">
            <g id="사각형_291" class="cls-2" transform="translate(759 377)">
                <rect width="86" height="64" class="cls-15" rx="4"/>
                <rect width="84" height="62" x="1" y="1" class="cls-16" rx="3"/>
            </g>
            <g id="사각형_292" fill="#fff" stroke="#333">
                <path d="M0 0H42V2H0z" class="cls-15" transform="translate(781 449)"/>
                <path d="M0.5 0.5H41.5V1.5H0.5z" class="cls-16" transform="translate(781 449)"/>
            </g>
            <g id="사각형_293" class="cls-2">
                <path d="M0 0H22V12H0z" class="cls-15" transform="translate(791 439)"/>
                <path d="M1 1H21V11H1z" class="cls-16" transform="translate(791 439)"/>
            </g>
            <g id="그룹_168" transform="translate(679.002 -243.87)">
                <g id="그룹_165" transform="translate(126.715 645.064)">
                    <path id="패스_72" d="M73.875 164.862c-3.619 0-5.617-2.381-5.617-5.9s2.164-5.931 5.683-5.931a7.033 7.033 0 0 1 3.486.841l-.379 2.464a5.635 5.635 0 0 0-3.039-.974c-1.969 0-2.924 1.453-2.924 3.585 0 2.148.989 3.651 2.955 3.651a3.009 3.009 0 0 0 1.537-.364V160.2h-1.982l-.33-2.1h4.775v5.552a7.51 7.51 0 0 1-4.164 1.206z" class="cls-4" transform="translate(-68.258 -153.028)"/>
                    <path id="패스_73" d="M89.644 164.824a9.386 9.386 0 0 1-3.981-.859l.412-2.414a8.068 8.068 0 0 0 3.62 1.056c.81 0 1.372-.343 1.372-1.022 0-.646-.333-.943-1.935-1.555-2.28-.876-3.27-1.62-3.27-3.5 0-2.195 1.719-3.37 3.895-3.37a7.268 7.268 0 0 1 3.439.76l-.431 2.38a6.223 6.223 0 0 0-2.97-.923c-.86 0-1.272.361-1.272.89 0 .579.312.861 1.733 1.405 2.479.909 3.471 1.77 3.471 3.585 0 2.475-1.818 3.567-4.083 3.567z" class="cls-4" transform="translate(-74.444 -153.073)"/>
                </g>
                <g id="그룹_167" transform="translate(99.998 638.998)">
                    <path id="패스_80" fill="url(#linear-gradient)" d="M29.079 153.109l-.848-.937a11.826 11.826 0 0 0-1.63 5.934h.585a7.147 7.147 0 0 1 1.894-5z" transform="translate(-26.599 -146.707)"/>
                    <path id="패스_81" fill="url(#linear-gradient-2)" d="M28.927 165.575a5.528 5.528 0 0 1-1.744-4.186v-.012H26.6a14.659 14.659 0 0 0 1.13 5.84z" transform="translate(-26.597 -149.898)"/>
                    <path id="패스_82" fill="url(#linear-gradient-3)" d="M58.506 159.033l-1.086 1.122a2.421 2.421 0 0 1 2.4 2.667h.58a4.871 4.871 0 0 0-1.9-3.788z" transform="translate(-37.553 -149.1)"/>
                    <path id="패스_83" fill="url(#linear-gradient-4)" d="M60.552 164.91h-.585a3.423 3.423 0 0 1-2.128 3.006l1.527 2.1a10.566 10.566 0 0 0 1.185-5.108z" transform="translate(-37.702 -151.13)"/>
                    <path id="패스_84" fill="url(#linear-gradient-5)" d="M31.359 157.841a3.81 3.81 0 0 0-.066.7 5.59 5.59 0 0 0 5.893 5.725c6.25 0 8.106-5.106 10.9-5.106h.044l1.086-1.122a9.04 9.04 0 0 0-5.784-1.807c-4.947 0-7.584 4.132-9.831 4.132a2.017 2.017 0 0 1-1.726-2.115 2.808 2.808 0 0 1 .019-.316z" transform="translate(-28.267 -148.099)"/>
                    <path id="패스_85" fill="url(#linear-gradient-6)" d="M34.464 148.3c3.612 0 6.119 2.734 9.342 2.734 3.866 0 6.006-1.883 6.542-5.565l-.585-.1c-.163.974-.8 2.147-1.939 2.147-1.072 0-2.213-.944-3.871-1.854a11.777 11.777 0 0 0-5.942-1.856 10.389 10.389 0 0 0-8.881 5.39l.848.937a6.1 6.1 0 0 1 4.487-1.835z" transform="translate(-27.497 -143.809)"/>
                    <path id="패스_86" fill="url(#linear-gradient-7)" d="M37.964 170.464c-2.8 0-6.335-.607-8.412-2.57l-1.2 1.642c1.726 3.967 5.4 6.589 10.915 6.589 3.642 0 7.671-1.442 9.62-5.046l-1.527-2.1c-1.795.943-4.815 1.485-9.396 1.485z" transform="translate(-27.222 -152.125)"/>
                </g>
            </g>
        </g>
        <path id="사각형_294" fill="#333" d="M0 0H84V1H0z" transform="translate(761 430)"/>
        <g id="check" transform="translate(827.5 424)">
            <rect id="사각형_197" width="30" height="30" fill="#04a9a9" rx="15" transform="translate(-.499)"/>
            <g id="check-2" transform="translate(7.501 10)">
                <path id="사각형_45" d="M0 0H2V12H0z" class="cls-14" transform="rotate(45 6.364 15.364)"/>
                <path id="사각형_46" d="M0 0H2V8H0z" class="cls-14" transform="rotate(135 1.778 5.707)"/>
            </g>
        </g>
    </g>
</svg>
