<svg xmlns="http://www.w3.org/2000/svg" id="ic_idno" width="100" height="100" viewBox="0 0 100 100">
    <defs>
        <style>
            .cls-2,.cls-8{fill:#fff}.cls-2{stroke:#333;stroke-width:2px}.cls-4{fill:#04a9a9}.cls-5{fill:#e9e9e9}.cls-9{stroke:none}.cls-10{fill:none}
        </style>
    </defs>
    <g id="ic" transform="translate(-758 -365)">
        <g id="모니터" transform="translate(1)">
            <g id="사각형_291" class="cls-2" transform="translate(759 377)">
                <rect width="86" height="64" class="cls-9" rx="4"/>
                <rect width="84" height="62" x="1" y="1" class="cls-10" rx="3"/>
            </g>
            <g id="사각형_292" fill="#fff" stroke="#333">
                <path d="M0 0H42V2H0z" class="cls-9" transform="translate(781 449)"/>
                <path d="M0.5 0.5H41.5V1.5H0.5z" class="cls-10" transform="translate(781 449)"/>
            </g>
            <g id="사각형_293" class="cls-2">
                <path d="M0 0H22V12H0z" class="cls-9" transform="translate(791 439)"/>
                <path d="M1 1H21V11H1z" class="cls-10" transform="translate(791 439)"/>
            </g>
            <g id="그룹_142" transform="translate(-7 3)">
                <g id="my" transform="translate(-152 184)">
                    <rect id="사각형_296" width="10" height="10" class="cls-4" rx="5" transform="translate(933 208)"/>
                    <path id="패스_55" d="M10 0c5.523 0 10 3.166 10 7.071s-20 3.905-20 0S4.477 0 10 0z" class="cls-4" transform="translate(928 220)"/>
                </g>
                <g id="line" transform="translate(-152 186)">
                    <rect id="사각형_297" width="40" height="6" class="cls-5" rx="2" transform="translate(954 208)"/>
                    <rect id="사각형_298" width="40" height="6" class="cls-5" rx="2" transform="translate(954 220)"/>
                </g>
            </g>
            <path id="사각형_294" fill="#333" d="M0 0H84V1H0z" transform="translate(760 430)"/>
        </g>
        <g id="x" transform="translate(2 -2)">
            <circle id="타원_17" cx="15" cy="15" r="15" fill="#ff9e1e" transform="translate(825 426)"/>
            <g id="그룹_143" transform="translate(-2.758 1.171)">
                <path id="사각형_299" d="M0 0H2.121V14.849H0z" class="cls-8" transform="rotate(45 -100.049 1239.645)"/>
                <path id="사각형_300" d="M0 0H2.121V14.849H0z" class="cls-8" transform="rotate(135 332.355 397.948)"/>
            </g>
        </g>
    </g>
</svg>
