<svg xmlns="http://www.w3.org/2000/svg" id="ic_joincheck" width="105.001" height="114" viewBox="0 0 105.001 114">
    <defs>
        <filter id="사각형_390" width="62" height="62" x="43.001" y="52" filterUnits="userSpaceOnUse">
            <feOffset dy="4"/>
            <feGaussianBlur result="blur" stdDeviation="5"/>
            <feFlood flood-opacity=".161"/>
            <feComposite in2="blur" operator="in"/>
            <feComposite in="SourceGraphic"/>
        </filter>
        <style>
            .cls-5{fill:#fff}.cls-3{fill:#e9e9e9}.cls-7{fill:#008184}
        </style>
    </defs>
    <g id="ic" transform="translate(47.999 16)">
        <g id="paper">
            <g id="사각형_379" fill="#fff" stroke="#333" stroke-width="2px" transform="translate(-38.999 -11)">
                <rect width="68" height="86" stroke="none" rx="6"/>
                <rect width="66" height="84" x="1" y="1" fill="none" rx="5"/>
            </g>
            <rect id="사각형_383" width="48" height="4" class="cls-3" rx="1" transform="translate(-28.999 51)"/>
            <rect id="사각형_391" width="48" height="4" class="cls-3" rx="1" transform="translate(-28.999 59)"/>
        </g>
        <g id="check" transform="translate(0 42)">
            <g filter="url(#사각형_390)" transform="translate(-48 -58)">
                <rect id="사각형_390-2" width="32" height="32" fill="#04a9a9" rx="16" transform="translate(58 63)"/>
            </g>
            <g id="그룹_171" transform="translate(19.026 15.988)">
                <path id="사각형_388" d="M0 0H2V12H0z" class="cls-5" transform="rotate(45 6.364 15.364)"/>
                <path id="사각형_389" d="M0 0H2V8H0z" class="cls-5" transform="rotate(135 1.778 5.707)"/>
            </g>
        </g>
        <g id="simbol" transform="translate(-943.709 -256)">
            <path id="패스_92" fill="#f68e00" d="M360.547 303.087h5.207a.744.744 0 0 1 .564.231.834.834 0 0 1 .229.591v5.177z" transform="translate(581.165 -32.531)"/>
            <path id="패스_93" d="M379.654 273.243h6.946a1.067 1.067 0 0 1 .753.27.908.908 0 0 1 .3.692v6.037z" class="cls-7" transform="translate(565.058 -7.242)"/>
            <path id="패스_94" d="M290.851 253.445v-.21a100.877 100.877 0 0 1-10.2-8.044c-1.043-.98-1.951-1.86-2.739-2.751 2.631-.944 4.891-2.533 4.875-4.8-.018-2.634-2.2-4.2-5.133-4.2-3.2 0-5.179 2.2-5.179 4.777a8.392 8.392 0 0 0 2.027 4.8c-4.63 2.013-5.73 6.627-3.613 9.369 2.3 2.983 8.283 2.8 11.843-1.106l2.63 2.159zm-15.431-14.167c-1.186-2.141.03-4.941 2.2-4.941a2.982 2.982 0 0 1 2.763 3.216c0 1.468-.774 3.173-3.144 4.239a14.365 14.365 0 0 1-1.821-2.515zm-1.376 11.543c-1.993-2.043-1.292-5.621.969-7.153.928 1.111 1.867 2.164 3.131 3.421s2.056 2.059 3.731 3.547c-1.754 1.583-5.837 2.23-7.831.186z" class="cls-7" transform="translate(657.861 27.557)"/>
        </g>
    </g>
</svg>
