<svg xmlns="http://www.w3.org/2000/svg" width="80" height="34" viewBox="0 0 80 34">
    <defs>
        <style>
            .cls-2{fill:#352f22}.cls-3{fill:#bfce18}
        </style>
    </defs>
    <g id="m_logo_gsshop" transform="translate(-966 -851)">
        <g id="그룹_190" transform="translate(720.058 761.803)">
            <g id="그룹_188" transform="translate(259.942 101.199)">
                <path id="패스_130" d="M264.508 110.905c-2.941 0-4.566-1.95-4.566-4.834s1.759-4.86 4.62-4.86a5.707 5.707 0 0 1 2.835.69l-.309 2.018a4.553 4.553 0 0 0-2.472-.8c-1.6 0-2.377 1.192-2.377 2.938s.806 2.992 2.4 2.992a2.445 2.445 0 0 0 1.25-.3v-1.665h-1.612l-.269-1.72h3.882v4.549a6.069 6.069 0 0 1-3.385.989" class="cls-2" transform="translate(-259.942 -101.211)"/>
                <path id="패스_131" d="M326.353 111.24a7.557 7.557 0 0 1-3.237-.7l.336-1.977a6.53 6.53 0 0 0 2.942.866c.658 0 1.115-.284 1.115-.839 0-.528-.269-.772-1.572-1.273-1.854-.718-2.659-1.327-2.659-2.87 0-1.8 1.4-2.762 3.17-2.762a5.854 5.854 0 0 1 2.794.623l-.349 1.95a5.045 5.045 0 0 0-2.418-.758c-.7 0-1.034.3-1.034.731 0 .474.255.7 1.41 1.151 2.015.745 2.821 1.449 2.821 2.939 0 2.031-1.477 2.924-3.317 2.924" class="cls-2" transform="translate(-314.145 -101.613)"/>
                <path id="패스_132" d="M394.062 111.238a7.561 7.561 0 0 1-3.237-.7l.335-1.977a6.529 6.529 0 0 0 2.942.867c.659 0 1.115-.284 1.115-.839 0-.528-.269-.772-1.572-1.273-1.854-.718-2.659-1.327-2.659-2.87 0-1.8 1.4-2.763 3.17-2.763a5.852 5.852 0 0 1 2.794.623l-.349 1.95a5.039 5.039 0 0 0-2.418-.758c-.7 0-1.034.3-1.034.731 0 .474.255.7 1.411 1.151 2.015.745 2.82 1.449 2.82 2.938 0 2.031-1.477 2.924-3.318 2.924" class="cls-2" transform="translate(-372.24 -101.611)"/>
                <path id="패스_133" d="M449.9 111.773v-3.819h-3.21v3.819h-2.3v-9.345h2.3v3.494h3.21v-3.494h2.3v9.345z" class="cls-2" transform="translate(-418.21 -102.254)"/>
                <path id="패스_134" d="M583.254 108.672h-.591v3.1h-2.3v-9.345h2.982c2.256 0 3.64 1.016 3.64 3.048 0 2.113-1.491 3.2-3.735 3.2m-.04-4.5h-.578v2.749h.537c1.021 0 1.585-.447 1.585-1.409 0-.893-.524-1.34-1.544-1.34" class="cls-2" transform="translate(-534.868 -102.254)"/>
            </g>
            <g id="그룹_189" transform="translate(294.889 101.197)">
                <path id="패스_135" d="M509.54 101.771a1.437 1.437 0 0 1 .47-.386.412.412 0 0 1 .112-.032v-.153a1 1 0 0 0-.1.017c-1.044.241-3.3 1.246-3.3 4.831s2.253 4.59 3.3 4.831a1 1 0 0 0 .1.017v-.156a.412.412 0 0 1-.112-.032 1.434 1.434 0 0 1-.47-.386c-.657-.8-.845-2.288-.827-4.274s.17-3.482.827-4.277z" class="cls-3" transform="translate(-506.721 -101.197)"/>
                <path id="패스_136" d="M548.85 101.771a1.437 1.437 0 0 0-.47-.386.412.412 0 0 0-.112-.032v-.153a1.008 1.008 0 0 1 .1.017c1.044.241 3.3 1.246 3.3 4.831s-2.253 4.59-3.3 4.831a1 1 0 0 1-.1.017v-.156a.412.412 0 0 0 .112-.032 1.434 1.434 0 0 0 .47-.386c.657-.8.845-2.288.827-4.274s-.17-3.482-.827-4.277z" class="cls-3" transform="translate(-542.316 -101.197)"/>
            </g>
        </g>
    </g>
</svg>
