<svg xmlns="http://www.w3.org/2000/svg" width="80" height="34" viewBox="0 0 80 34">
    <defs>
        <style>
            .cls-2{fill:#50cc1a}.cls-3{fill:#2f2c2c}
        </style>
    </defs>
    <g id="m_logo_freshmall" transform="translate(-1179 -791)">
        <g id="그룹_198" transform="translate(1052.285 545.893)">
            <path id="패스_162" d="M139.249 268.328h1.309v1.345a1.974 1.974 0 0 1-1.017.243c-1.3 0-1.956-1-1.956-2.419s.632-2.377 1.935-2.377a3.717 3.717 0 0 1 2.01.646l.252-1.63a4.657 4.657 0 0 0-2.307-.558 3.6 3.6 0 0 0-3.761 3.93c0 2.333 1.323 3.909 3.717 3.909a4.96 4.96 0 0 0 2.755-.8v-3.678h-3.161z" class="cls-2" transform="translate(0 -4.877)"/>
            <path id="패스_163" d="M206.069 266.624c-.955-.365-1.166-.554-1.166-.945 0-.355.278-.6.856-.6a4.181 4.181 0 0 1 1.994.619l.288-1.6a4.864 4.864 0 0 0-2.307-.511c-1.463 0-2.616.787-2.616 2.265 0 1.265.664 1.766 2.195 2.354 1.076.412 1.3.613 1.3 1.045 0 .455-.377.688-.921.688a5.435 5.435 0 0 1-2.427-.71l-.277 1.62a6.278 6.278 0 0 0 2.671.576c1.52 0 2.739-.731 2.739-2.4 0-1.221-.664-1.8-2.326-2.41" class="cls-2" transform="translate(-59.986 -4.892)"/>
            <path id="패스_164" d="M273.381 263.621h5.783v1.579h-4.018v1.59h3.454v1.579h-3.449v3.086h-1.765z" class="cls-2" transform="translate(-122.698 -4.917)"/>
            <path id="패스_165" d="M329.04 286.967h1.209l.237.9a1.5 1.5 0 0 1 1.458-1.043 1.979 1.979 0 0 1 .379.035v1.706a2.8 2.8 0 0 0-.415-.035 1.163 1.163 0 0 0-1.209.842v2.761h-1.659z" class="cls-2" transform="translate(-172.309 -25.596)"/>
            <path id="패스_166" d="M366.143 290.831a2.619 2.619 0 0 0 1.683-.581v1.45a3.462 3.462 0 0 1-1.861.486c-1.908 0-3.07-1.031-3.07-2.761a2.52 2.52 0 0 1 2.691-2.691 2.319 2.319 0 0 1 2.536 2.453 5.233 5.233 0 0 1-.071.794h-3.4c.166.557.675.854 1.493.854m-1.517-1.932h1.991a1.015 1.015 0 0 0-1.991 0" class="cls-2" transform="translate(-202.481 -25.511)"/>
            <path id="패스_167" d="M415.914 291.837v-1.41a3.3 3.3 0 0 0 1.979.569c.557 0 .794-.1.794-.356 0-.2-.166-.3-.64-.379l-.663-.119c-1.078-.189-1.482-.735-1.482-1.564 0-1.162.782-1.754 2.287-1.754a3.558 3.558 0 0 1 1.766.379v1.4a3.194 3.194 0 0 0-1.743-.5c-.509 0-.711.107-.711.344 0 .213.178.284.64.367l.663.119c.984.178 1.482.663 1.482 1.6 0 1.162-.782 1.743-2.383 1.743a3.9 3.9 0 0 1-1.991-.439" class="cls-2" transform="translate(-249.727 -25.595)"/>
            <path id="패스_168" d="M464.06 258.155h1.659v3.738a1.772 1.772 0 0 1 1.434-.629c1.126 0 1.742.712 1.742 2.065v3.252h-1.659v-2.991c0-.522-.213-.783-.652-.783a.935.935 0 0 0-.865.641v3.134h-1.659z" class="cls-2" transform="translate(-292.648 -.042)"/>
            <path id="패스_169" d="M531.017 263.621h.676l3.33 5.378 3.331-5.378h.687v7.835h-.687v-6.612l-3.129 5.093h-.4l-3.141-5.093v6.612h-.664z" class="cls-3" transform="translate(-352.316 -4.917)"/>
            <path id="패스_170" d="M613.085 291.543c0-1.019.735-1.636 1.992-1.636a4.032 4.032 0 0 1 1.743.4v-.356c0-1.067-.5-1.577-1.542-1.577a2.4 2.4 0 0 0-1.756.687v-.687a2.739 2.739 0 0 1 1.839-.593 1.878 1.878 0 0 1 2.123 2.087v3.119h-.522l-.1-.806a2.388 2.388 0 0 1-1.968.949c-1.127 0-1.815-.6-1.815-1.59m3.735-.059v-.6a3.717 3.717 0 0 0-1.66-.391c-.925 0-1.411.356-1.411 1.031 0 .641.451 1.02 1.257 1.02a2.063 2.063 0 0 0 1.815-1.056" class="cls-3" transform="translate(-425.451 -26.451)"/>
            <path id="사각형_423" d="M0 0H0.664V8.432H0z" class="cls-3" transform="translate(193.251 258.107)"/>
            <path id="사각형_424" d="M0 0H0.664V8.432H0z" class="cls-3" transform="translate(195.134 258.107)"/>
            <path id="패스_171" d="M696.319 326.528a.534.534 0 1 1 .534.534.517.517 0 0 1-.534-.534" class="cls-3" transform="translate(-499.671 -60.524)"/>
        </g>
    </g>
</svg>
