<svg xmlns="http://www.w3.org/2000/svg" width="80" height="34" viewBox="0 0 80 34">
    <defs>
        <style>
            .cls-2{fill:#0065b2;fill-rule:evenodd}.cls-3{fill:#12b5d3}
        </style>
    </defs>
    <g id="m_logo_gs25" transform="translate(-1037 -791)">
        <g id="그룹_206" transform="translate(130.99 618.921)">
            <g id="그룹_202" transform="translate(926.01 183.079)">
                <g id="그룹_201">
                    <g id="그룹_200">
                        <g id="그룹_199">
                            <path id="패스_172" d="M936.6 194.3v-5.865h-5.17l.362 2.216h2.142v2.149a3.3 3.3 0 0 1-1.664.387c-2.129 0-3.2-1.591-3.2-3.857s1.034-3.79 3.165-3.79a6.186 6.186 0 0 1 3.289 1.03l.412-2.6a7.774 7.774 0 0 0-3.774-.89c-3.81 0-6.152 2.528-6.152 6.266 0 3.72 2.165 6.234 6.08 6.234a8.266 8.266 0 0 0 4.51-1.28z" class="cls-2" transform="translate(-926.01 -183.079)"/>
                            <path id="패스_173" d="M974.644 191.927c0-1.918-1.071-2.827-3.752-3.787-1.54-.574-1.881-.871-1.881-1.485 0-.558.448-.936 1.38-.936a6.871 6.871 0 0 1 3.216.973l.465-2.511a8.013 8.013 0 0 0-3.72-.8c-2.36 0-4.219 1.236-4.219 3.559 0 1.989 1.072 2.776 3.54 3.7 1.736.648 2.092.963 2.092 1.642 0 .715-.608 1.082-1.485 1.082a8.942 8.942 0 0 1-3.915-1.115l-.446 2.546a10.345 10.345 0 0 0 4.307.9c2.452.005 4.418-1.149 4.418-3.768z" class="cls-2" transform="translate(-954.002 -183.288)"/>
                        </g>
                    </g>
                </g>
            </g>
            <g id="그룹_204" transform="translate(947.618 183.173)">
                <g id="그룹_203">
                    <path id="패스_174" d="M1003.89 191.371c1.424-.913 3.357-2.1 3.357-4.362 0-2.483-2.157-3.614-4.16-3.614a4.793 4.793 0 0 0-4.364 2.68l2.306 1.052a2.348 2.348 0 0 1 1.858-1.253 1.384 1.384 0 0 1 1.37 1.419c0 .7-.8 1.22-1.8 1.885-1.584 1.053-3.556 2.364-3.556 5.058a6.93 6.93 0 0 0 .129 1.232h8.224v-2.413h-5.073c-.004-.528.783-1.09 1.709-1.684z" class="cls-3" transform="translate(-998.723 -183.395)"/>
                </g>
            </g>
            <path id="패스_175" fill="#fff" d="M1045.99 198.722a1.185 1.185 0 1 1 1.185-1.185 1.186 1.186 0 0 1-1.185 1.185z" transform="translate(-83.476 -9.426)"/>
            <path id="패스_176" d="M1037.307 195.683a2.447 2.447 0 0 0-.722-.128 1.423 1.423 0 0 0-1.423 1.423 1.408 1.408 0 0 0 .73 1.242c.2.111.7.262.838.337a1.9 1.9 0 1 1-2.788 1.835l-2.545.554a4.58 4.58 0 1 0 5.909-5.263zm-.722 2.241a.946.946 0 1 1 .946-.946.948.948 0 0 1-.945.946z" class="cls-3" transform="translate(-74.072 -9.054)"/>
            <g id="그룹_205" transform="translate(957.619 183.343)">
                <path id="패스_177" d="M1032.882 183.964l-.5 5.715h2.56l.327-3.248h2.941a2.325 2.325 0 0 0 2.372-2.468z" class="cls-3" transform="translate(-1032.38 -183.964)"/>
            </g>
        </g>
    </g>
</svg>
