<svg xmlns="http://www.w3.org/2000/svg" width="80" height="34" viewBox="0 0 80 34">
    <defs>
        <style>
            .cls-2{fill:#00573f}
        </style>
    </defs>
    <g id="m_logo_gsthefresh" transform="translate(-824 -851)">
        <g id="그룹_187" transform="translate(823.273 855.273)">
            <path id="패스_120" d="M12.556 13.525H13.6V14.6a1.583 1.583 0 0 1-.814.194c-1.042 0-1.566-.8-1.566-1.934s.506-1.9 1.549-1.9a2.977 2.977 0 0 1 1.61.516l.2-1.3a3.734 3.734 0 0 0-1.847-.446 2.884 2.884 0 0 0-3.011 3.141 2.823 2.823 0 0 0 2.979 3.123 3.975 3.975 0 0 0 2.206-.639v-2.94h-2.527z" class="cls-2"/>
            <path id="패스_121" d="M30.268 12.251c-.753-.288-.921-.437-.921-.745 0-.28.219-.47.676-.47a3.3 3.3 0 0 1 1.574.488l.228-1.26A3.845 3.845 0 0 0 30 9.862a1.823 1.823 0 0 0-2.065 1.785c0 1 .524 1.392 1.732 1.855.849.325 1.024.483 1.024.823 0 .359-.3.543-.727.543a4.3 4.3 0 0 1-1.916-.56l-.218 1.277a4.961 4.961 0 0 0 2.108.454c1.2 0 2.162-.576 2.162-1.89 0-.961-.519-1.416-1.832-1.898z" class="cls-2" transform="translate(-12.274 -.092)"/>
            <path id="패스_122" d="M47.984 10.936h2.156v5.2h.919v-5.2h2.05v-.813h-5.125z" class="cls-2" transform="translate(-25.933 -.268)"/>
            <path id="패스_123" d="M71.5 12.644h-3.721v-2.521h-.919v6.01h.919v-2.685H71.5v2.685h.919v-6.01H71.5z" class="cls-2" transform="translate(-38.728 -.268)"/>
            <path id="패스_124" d="M89.127 16.133h4.658v-.813H90v-1.883h3.138v-.813H90v-1.688h3.783v-.813h-4.656z" class="cls-2" transform="translate(-53.822 -.268)"/>
            <path id="패스_125" d="M113.588 16.133h.875v-2.694h3.129v-.813h-3.129v-1.69h3.606v-.813h-4.481z" class="cls-2" transform="translate(-70.404 -.268)"/>
            <path id="패스_126" d="M134.306 13.924a1.9 1.9 0 0 0 1.894-1.874c0-1.414-1.122-1.927-2.262-1.927h-2.607v6.01h.919v-2.21h.91c.707.513 1.688 2.3 3.014 2.3h.6v-.8h-.461c-.742-.006-1.423-.899-2.007-1.499zm-2.059-.734v-2.263h1.786a1.088 1.088 0 0 1 1.2 1.14 1.107 1.107 0 0 1-1.2 1.122z" class="cls-2" transform="translate(-82.429 -.268)"/>
            <path id="패스_127" d="M151.768 16.133h4.658v-.813h-3.783v-1.883h3.138v-.813h-3.138v-1.688h3.783v-.813h-4.658z" class="cls-2" transform="translate(-96.285 -.268)"/>
            <path id="패스_128" d="M171.922 12.625l-1.193-.318c-.522-.133-.813-.345-.813-.751 0-.451.424-.831 1.387-.831a3.925 3.925 0 0 1 1.865.495l.274-.866a4.768 4.768 0 0 0-2.1-.477c-1.626 0-2.369.813-2.369 1.75a1.546 1.546 0 0 0 1.361 1.529l1.211.309c.672.168 1.052.4 1.052.822 0 .557-.557.919-1.432.919a3.732 3.732 0 0 1-1.874-.548l-.221.875a4.564 4.564 0 0 0 2.077.521c1.423 0 2.4-.725 2.4-1.838.001-.849-.565-1.3-1.625-1.591z" class="cls-2" transform="translate(-107.945 -.101)"/>
            <path id="패스_129" d="M191.649 10.123v2.512h-3.721v-2.512h-.919v6.01h.919v-2.694h3.721v2.694h.919v-6.01z" class="cls-2" transform="translate(-120.173 -.268)"/>
        </g>
    </g>
</svg>
