<svg xmlns="http://www.w3.org/2000/svg" width="80" height="34" viewBox="0 0 80 34">
    <defs>
        <style>
            .cls-2{fill:#001e30}
        </style>
    </defs>
    <g id="m_logo_lalavla" transform="translate(-966 -851)">
        <g id="그룹_193" transform="translate(670.956 743.388)">
            <g id="그룹_191" transform="translate(316.044 116.612)">
                <path id="사각형_416" d="M0 0H1.561V9.226H0z" class="cls-2" transform="translate(10.96)"/>
                <path id="패스_137" d="M398.328 135.365a2.279 2.279 0 0 0-1.856-.87 3.11 3.11 0 0 0 0 6.219 2.309 2.309 0 0 0 1.856-.883v.768h1.561v-5.976h-1.561zm-1.637 3.851a1.613 1.613 0 1 1 0-3.224 1.612 1.612 0 1 1 0 3.224z" class="cls-2" transform="translate(-379.7 -131.373)"/>
                <path id="사각형_417" d="M0 0H1.561V9.226H0z" class="cls-2"/>
                <path id="패스_138" d="M336.41 135.365a2.28 2.28 0 0 0-1.855-.87 3.11 3.11 0 0 0 0 6.219 2.31 2.31 0 0 0 1.855-.883v.768h1.561v-5.976h-1.561zm-1.638 3.851a1.613 1.613 0 1 1 0-3.224 1.612 1.612 0 1 1 0 3.224z" class="cls-2" transform="translate(-328.809 -131.373)"/>
                <path id="사각형_418" d="M0 0H1.561V9.226H0z" class="cls-2" transform="translate(28.733)"/>
                <path id="패스_139" d="M498.737 134.623v.742a2.279 2.279 0 0 0-1.855-.87 3.11 3.11 0 0 0 0 6.219 2.31 2.31 0 0 0 1.855-.883v.768h1.563v-5.976zm-1.638 4.594a1.613 1.613 0 1 1 0-3.224 1.612 1.612 0 1 1 0 3.224z" class="cls-2" transform="translate(-462.298 -131.373)"/>
                <path id="패스_140" fill="#e4085c" d="M441.3 134.608a1.339 1.339 0 0 0-1.83.488l-.754 1.3-.754-1.3a1.339 1.339 0 0 0-2.318 1.342l2.2 3.8a1 1 0 0 0 1.738 0l2.2-3.8a1.339 1.339 0 0 0-.482-1.83z" transform="translate(-414.276 -131.317)"/>
            </g>
            <g id="그룹_192" transform="translate(316.061 129.172)">
                <path id="패스_141" d="M316.5 189.164h-.362v4.177h2.337v-.321H316.5z" class="cls-2" transform="translate(-316.143 -188.966)"/>
                <path id="사각형_419" d="M0 0H0.356V2.985H0z" class="cls-2" transform="translate(2.846 1.39)"/>
                <path id="패스_142" d="M332.051 188.886a.325.325 0 0 0 0 .4.252.252 0 0 0 .37 0 .324.324 0 0 0 0-.4.26.26 0 0 0-.37 0z" class="cls-2" transform="translate(-329.218 -188.672)"/>
                <path id="패스_143" d="M339.287 188.354c.3 0 .5.167.5.424a.246.246 0 0 1-.017.112l-.039.066h.354l.01-.03a.538.538 0 0 0 .031-.166.741.741 0 0 0-.838-.733.891.891 0 0 0-.65.27 1.247 1.247 0 0 0-.264.9v.225h-.508v.31h.508v2.668h.356v-2.676h.871v-.31h-.871v-.248c-.001-.515.203-.812.557-.812z" class="cls-2" transform="translate(-334.072 -188.027)"/>
                <path id="패스_144" d="M351.609 197.142v-.042a1.439 1.439 0 0 0-.442-1.1 1.489 1.489 0 0 0-1.022-.373 1.543 1.543 0 0 0-1.147.457 1.56 1.56 0 0 0 .007 2.212 1.673 1.673 0 0 0 1.2.445 1.635 1.635 0 0 0 1.229-.487l.025-.026-.021-.03a.7.7 0 0 0-.088-.089.688.688 0 0 1-.075-.075l-.029-.04-.036.034a1.42 1.42 0 0 1-1 .386 1.3 1.3 0 0 1-.946-.344 1.14 1.14 0 0 1-.361-.856v-.067zm-2.243-.933a1.2 1.2 0 0 1 .779-.259 1.028 1.028 0 0 1 1.088.889h-2.283a1.172 1.172 0 0 1 .416-.63z" class="cls-2" transform="translate(-342.794 -194.297)"/>
                <path id="사각형_420" d="M0 0H0.356V2.985H0z" class="cls-2" transform="translate(10.353 1.39)"/>
                <path id="패스_145" d="M374.188 188.886a.325.325 0 0 0 0 .4.253.253 0 0 0 .37 0 .325.325 0 0 0 0-.4.261.261 0 0 0-.37 0z" class="cls-2" transform="translate(-363.849 -188.672)"/>
                <path id="패스_146" d="M381.761 197.074l-.439-.135c-.305-.089-.453-.243-.453-.472a.609.609 0 0 1 1.143-.164l.015.036.329-.094-.017-.045a.921.921 0 0 0-.876-.577.945.945 0 0 0-.7.258.791.791 0 0 0-.259.586c0 .4.243.668.72.8l.432.134c.294.094.437.253.437.484 0 .293-.271.505-.645.505a.705.705 0 0 1-.713-.387l-.014-.037-.336.094.017.045a1.069 1.069 0 0 0 1.046.63 1.115 1.115 0 0 0 .7-.231.74.74 0 0 0 .3-.619.829.829 0 0 0-.687-.811z" class="cls-2" transform="translate(-368.997 -194.297)"/>
                <path id="사각형_421" d="M0 0H0.356V4.311H0z" class="cls-2" transform="translate(15.007 .064)"/>
                <path id="패스_147" d="M408.473 195.623a1.557 1.557 0 1 0 1.112 2.657 1.482 1.482 0 0 0 .463-1.094 1.58 1.58 0 0 0-1.574-1.563zm0 2.787a1.161 1.161 0 0 1-.845-.355 1.241 1.241 0 0 1 0-1.738 1.164 1.164 0 0 1 1.7 0 1.219 1.219 0 0 1 0 1.732 1.136 1.136 0 0 1-.855.361z" class="cls-2" transform="translate(-390.809 -194.297)"/>
                <path id="패스_148" d="M427.553 198.51l-1-2.52h-.381l1.21 2.985h.351l1.21-2.985h-.381z" class="cls-2" transform="translate(-406.654 -194.6)"/>
                <path id="패스_149" d="M446.139 196.278a1.392 1.392 0 0 0-1.206-.655 1.469 1.469 0 0 0-1.118.452 1.531 1.531 0 0 0-.421 1.1 1.576 1.576 0 0 0 .427 1.117 1.489 1.489 0 0 0 1.106.446 1.391 1.391 0 0 0 1.212-.659v.594h.356v-2.985h-.356zm-1.206-.329a1.158 1.158 0 0 1 .874.355 1.2 1.2 0 0 1 .338.87 1.22 1.22 0 0 1-.344.881 1.163 1.163 0 0 1-.863.355 1.12 1.12 0 0 1-.856-.354 1.346 1.346 0 0 1-.006-1.752 1.1 1.1 0 0 1 .856-.354z" class="cls-2" transform="translate(-420.821 -194.297)"/>
                <path id="패스_150" d="M467.982 189.657a1.392 1.392 0 0 0-1.207.655V188.4h-.356v4.311h.356v-.594a1.391 1.391 0 0 0 1.212.659 1.464 1.464 0 0 0 1.1-.446 1.556 1.556 0 0 0 .433-1.117 1.533 1.533 0 0 0-.427-1.1 1.444 1.444 0 0 0-1.111-.456zm1.177 1.551a1.254 1.254 0 0 1-.333.882 1.1 1.1 0 0 1-.85.354 1.162 1.162 0 0 1-.862-.354 1.22 1.22 0 0 1-.344-.881 1.2 1.2 0 0 1 .338-.87 1.158 1.158 0 0 1 .874-.355 1.081 1.081 0 0 1 .85.355 1.216 1.216 0 0 1 .327.869z" class="cls-2" transform="translate(-439.685 -188.331)"/>
                <path id="사각형_422" d="M0 0H0.356V4.311H0z" class="cls-2" transform="translate(30.544 .064)"/>
                <path id="패스_151" d="M497.112 198.106a.73.73 0 0 1-.076-.075l-.029-.04-.036.034a1.42 1.42 0 0 1-1 .386 1.3 1.3 0 0 1-.946-.344 1.139 1.139 0 0 1-.36-.856v-.067h2.706v-.044a1.439 1.439 0 0 0-.441-1.1 1.491 1.491 0 0 0-1.022-.373 1.542 1.542 0 0 0-1.147.457 1.561 1.561 0 0 0 .006 2.212 1.674 1.674 0 0 0 1.2.445 1.636 1.636 0 0 0 1.229-.487l.025-.026-.021-.03a.7.7 0 0 0-.088-.092zm-1.989-1.9a1.2 1.2 0 0 1 .779-.259 1.029 1.029 0 0 1 1.088.889h-2.283a1.173 1.173 0 0 1 .416-.627z" class="cls-2" transform="translate(-462.697 -194.297)"/>
            </g>
        </g>
    </g>
</svg>
