<svg xmlns="http://www.w3.org/2000/svg" width="64" height="18" viewBox="0 0 64 18">
    <defs>
        <style>
            .cls-1{fill:#767572}.cls-3{fill:#008184}
        </style>
    </defs>
    <g id="top_logo" transform="translate(-182.536 -233.443)">
        <g id="그룹_7" transform="translate(218.58 242.612)">
            <path id="패스_20" d="M453.773 304.993a2.776 2.776 0 0 0-1.923-.618h-2.166v7.88h1.282v-3.215h.626c1.865 0 2.892-.848 2.892-2.388a2.122 2.122 0 0 0-.711-1.659zm-2.808.369h.515c1.143 0 1.673.438 1.673 1.378 0 .9-.539 1.313-1.7 1.313h-.491z" class="cls-1" transform="translate(-449.684 -304.297)"/>
            <path id="패스_21" d="M494.538 303.783c-2.143 0-3.323 1.454-3.323 4.095 0 2.43 1.235 3.94 3.225 3.94 2.142 0 3.322-1.455 3.322-4.094 0-2.431-1.235-3.941-3.224-3.941zm-.1 7.046c-1.758 0-1.894-2.26-1.894-2.952 0-2 .707-3.107 1.992-3.107 1.757 0 1.894 2.26 1.894 2.953 0 2-.708 3.106-1.993 3.106z" class="cls-1" transform="translate(-485.777 -303.783)"/>
            <path id="패스_22" d="M551.69 304.383h-1.181v7.88h1.28v-7.88z" class="cls-1" transform="translate(-537.307 -304.306)"/>
            <path id="패스_23" d="M578.041 304.383h-1.133v6.076l-3.1-6.076h-1.5v7.88h1.232v-6.036l3.1 6.035h1.5v-7.879z" class="cls-1" transform="translate(-556.251 -304.306)"/>
            <path id="패스_24" d="M628.446 304.383h-5.119v1.031h1.973v6.849h1.28v-6.849h1.969v-1.031z" class="cls-1" transform="translate(-600.591 -304.306)"/>
        </g>
        <g id="그룹_8" transform="translate(182.536 233.531)">
            <path id="패스_25" d="M185.579 240.43a2.86 2.86 0 0 1-3.043-3.141 2.923 2.923 0 0 1 3.076-3.162 3.863 3.863 0 0 1 1.889.45l-.206 1.311a3.1 3.1 0 0 0-1.646-.518c-1.061 0-1.582.775-1.582 1.909s.538 1.946 1.6 1.946a1.653 1.653 0 0 0 .831-.194v-1.082h-1.073l-.179-1.117h2.587v2.958a4.106 4.106 0 0 1-2.253.641" class="cls-1" transform="translate(-182.536 -234.127)"/>
            <path id="패스_26" d="M231.074 240.681a5.149 5.149 0 0 1-2.155-.458l.223-1.285a4.434 4.434 0 0 0 1.961.563c.439 0 .739-.188.739-.546s-.178-.5-1.046-.827c-1.232-.467-1.77-.863-1.77-1.868 0-1.171.929-1.795 2.111-1.795a3.987 3.987 0 0 1 1.863.405l-.236 1.267a3.4 3.4 0 0 0-1.61-.492c-.464 0-.686.193-.686.474 0 .308.169.458.939.75 1.343.483 1.879.941 1.879 1.909 0 1.32-.985 1.9-2.21 1.9" class="cls-1" transform="translate(-222.846 -234.421)"/>
        </g>
        <path id="패스_27" fill="#f68e00" d="M360.547 303.087h4.681a.694.694 0 0 1 .507.194.672.672 0 0 1 .206.495v4.332z" transform="translate(-154.272 -60.596)"/>
        <path id="패스_28" d="M379.654 273.243h5.705a.846.846 0 0 1 .618.236.818.818 0 0 1 .25.6v5.279z" class="cls-3" transform="translate(-170.821 -34.625)"/>
        <path id="패스_29" d="M287.65 250.587v-.18a85.656 85.656 0 0 1-8.65-6.895c-.884-.84-1.654-1.595-2.322-2.358 2.23-.809 4.145-2.171 4.132-4.112-.015-2.258-1.867-3.6-4.351-3.6a4.1 4.1 0 0 0-4.389 4.094 7.237 7.237 0 0 0 1.718 4.116c-3.924 1.726-4.857 5.68-3.062 8.03 1.951 2.556 7.021 2.4 10.037-.948l2.229 1.851zm-13.078-12.143c-1.005-1.835.026-4.235 1.867-4.235a2.547 2.547 0 0 1 2.342 2.757 3.984 3.984 0 0 1-2.665 3.634 12.308 12.308 0 0 1-1.543-2.156zm-1.166 9.894a4.193 4.193 0 0 1 .821-6.131c.787.952 1.582 1.855 2.654 2.932s1.743 1.765 3.162 3.04c-1.486 1.357-4.947 1.912-6.637.159z" class="cls-3" transform="translate(-75.614)"/>
    </g>
</svg>
